<svg width="14" height="15" viewBox="0 0 14 15" fill="none" xmlns="http://www.w3.org/2000/svg">
<rect width="14" height="15" fill="#E5E5E5"/>
<g id="Main_pc" clip-path="url(#clip0_0_1)">
<rect width="1280" height="4018" transform="translate(-194 -12)" fill="white"/>
<g id="Rectangle 1" filter="url(#filter0_d_0_1)">
<rect x="-129" y="12" width="1215" height="93" fill="white"/>
</g>
<rect id="Rectangle 345" x="-194" y="-76" width="1280" height="107" fill="#5F5F5F"/>
<g id="phone-call(1) 1" clip-path="url(#clip1_0_1)">
<g id="Page 1">
<g id="003   Call">
<path id="Shape" d="M5.79717 8.67727C4.4609 7.41523 4.15917 6.15319 4.0911 5.64755C4.07208 5.50774 4.12302 5.36754 4.22893 5.26821L5.31031 4.24737C5.46938 4.09722 5.49761 3.86323 5.37838 3.68314L3.65662 1.15815C3.52471 0.958737 3.25386 0.886765 3.03121 0.991963L0.267172 2.2214C0.0871172 2.30514 -0.0187886 2.48581 0.00165464 2.67438C0.146482 3.9738 0.74631 7.16811 4.0701 10.3075C7.3939 13.4468 10.7756 14.0131 12.1522 14.1499C12.3519 14.1692 12.5432 14.0692 12.6318 13.8991L13.9336 11.2887C14.0446 11.0788 13.9689 10.8237 13.7586 10.6989L11.0851 9.07325C10.8945 8.96052 10.6467 8.98699 10.4877 9.13708L9.40676 10.1584C9.30159 10.2584 9.15314 10.3065 9.0051 10.2886C8.46972 10.2243 7.13345 9.9393 5.79717 8.67727Z" fill="#A6D914"/>
<path id="Shape_2" d="M11.1034 7.99707C10.8368 7.99707 10.6207 7.79294 10.6207 7.54113C10.6184 5.65346 8.99868 4.12373 6.99997 4.12159C6.73335 4.12159 6.51721 3.91746 6.51721 3.66566C6.51721 3.41385 6.73335 3.20972 6.99997 3.20972C9.5317 3.21236 11.5834 5.15005 11.5862 7.54113C11.5862 7.79294 11.37 7.99707 11.1034 7.99707Z" fill="#A6D914"/>
<path id="Shape_3" d="M13.5172 7.9971C13.2506 7.9971 13.0345 7.79297 13.0345 7.54116C13.0307 4.39502 10.3312 1.84545 6.99997 1.84193C6.73335 1.84193 6.51721 1.6378 6.51721 1.38599C6.51721 1.13418 6.73335 0.930054 6.99997 0.930054C10.8642 0.934074 13.9957 3.89162 14 7.54116C14 7.66209 13.9491 7.77806 13.8586 7.86356C13.768 7.94907 13.6452 7.9971 13.5172 7.9971Z" fill="#A6D914"/>
</g>
</g>
</g>
</g>
<defs>
<filter id="filter0_d_0_1" x="-139" y="2" width="1235" height="113" filterUnits="userSpaceOnUse" color-interpolation-filters="sRGB">
<feFlood flood-opacity="0" result="BackgroundImageFix"/>
<feColorMatrix in="SourceAlpha" type="matrix" values="0 0 0 0 0 0 0 0 0 0 0 0 0 0 0 0 0 0 127 0" result="hardAlpha"/>
<feOffset/>
<feGaussianBlur stdDeviation="5"/>
<feColorMatrix type="matrix" values="0 0 0 0 0 0 0 0 0 0 0 0 0 0 0 0 0 0 0.1 0"/>
<feBlend mode="normal" in2="BackgroundImageFix" result="effect1_dropShadow_0_1"/>
<feBlend mode="normal" in="SourceGraphic" in2="effect1_dropShadow_0_1" result="shape"/>
</filter>
<clipPath id="clip0_0_1">
<rect width="1280" height="4018" fill="white" transform="translate(-194 -12)"/>
</clipPath>
<clipPath id="clip1_0_1">
<rect width="14" height="13.2222" fill="white" transform="translate(0 0.930054)"/>
</clipPath>
</defs>
</svg>
